<?xml version="1.0" encoding="utf-8"?>
<!-- Generator: Adobe Illustrator 22.1.0, SVG Export Plug-In . SVG Version: 6.00 Build 0)  -->
<svg version="1.1" id="Ebene_1" xmlns="http://www.w3.org/2000/svg" xmlns:xlink="http://www.w3.org/1999/xlink" x="0px" y="0px"
	 viewBox="0 0 2834.6 693.6" style="enable-background:new 0 0 2834.6 693.6;" xml:space="preserve">
<style type="text/css">
	.st0{fill:#4D4D4D;}
	.st1{fill:#1C497A;}
</style>
<path class="st0" d="M51.2,691.7h-13c-1.3,0-1.9-0.6-1.9-1.9v-113c0-1.3,0.6-1.9,1.9-1.9h13c1.1,0,1.9,0.6,1.9,1.9v113
	C53,691.2,52.5,691.7,51.2,691.7"/>
<path class="st0" d="M258.2,691.7h-11.9l-1.7-0.9l-44.1-83.1l1.1,82.2c0,1.3-0.6,1.9-1.8,1.9h-13c-1.3,0-1.9-0.6-1.9-1.9v-113
	c0-1.3,0.6-1.9,1.9-1.9h11.9l1.7,0.9l43.9,83l-0.9-82c0-1.3,0.6-1.9,1.8-1.9h13c1.3,0,1.9,0.6,1.9,1.9v113
	C260,691.2,259.5,691.7,258.2,691.7"/>
<path class="st0" d="M452.4,589.9h-21.3c-1.3,0-1.9,0.6-1.9,1.9v98.1c0,1.3-0.6,1.9-1.9,1.9h-13c-1.3,0-1.9-0.6-1.9-1.9v-98.1
	c0-1.3-0.6-1.9-1.9-1.9h-21.3c-1.3,0-1.9-0.6-1.9-1.9v-11.1c0-1.3,0.6-1.9,1.9-1.9h63c1.3,0,1.9,0.6,1.9,1.9V588
	C454.3,589.3,453.7,589.9,452.4,589.9"/>
<path class="st0" d="M646.7,691.7h-63c-1.3,0-1.9-0.6-1.9-1.9v-113c0-1.3,0.6-1.9,1.9-1.9h63c1.1,0,1.9,0.6,1.9,1.9V588
	c0,1.3-0.6,1.9-1.9,1.9h-46.3c-1.3,0-1.9,0.6-1.9,1.9v31.5c0,1.3,0.6,1.9,1.9,1.9h38c1.3,0,1.9,0.6,1.9,1.9V638
	c0,1.3-0.6,1.9-1.9,1.9h-38c-1.3,0-1.9,0.6-1.9,1.9v33.3c0,1.3,0.6,1.9,1.9,1.9h46.3c1.1,0,1.9,0.6,1.9,1.9v11.1
	C648.5,691.2,647.9,691.7,646.7,691.7"/>
<path class="st0" d="M854,690.2c0,0.9-0.7,1.5-1.8,1.5h-14.3l-1.7-1.3L819,641l-1.5-1.1h-18.3c-1.3,0-1.9,0.6-1.9,1.9v48.1
	c0,1.3-0.6,1.9-1.9,1.9h-13c-1.3,0-1.8-0.6-1.8-1.9v-113c0-1.3,0.6-1.9,1.8-1.9h37c20.4,0,33.3,13,33.3,33.3v1.9
	c0,6.5-3.5,14.4-10.6,21.1c-3.3,3.1-6.7,3.7-6.7,5.6c0,0.2,0,0.4,0.2,0.6l18,51.8C854,689.7,854,689.9,854,690.2 M836.3,606.6
	c0-9.3-7.4-16.7-16.7-16.7h-20.4c-1.3,0-1.9,0.6-1.9,1.9v31.5c0,1.3,0.6,1.9,1.9,1.9h20.4c9.3,0,16.7-7.4,16.7-16.7V606.6z"/>
<path class="st0" d="M1058.3,691.7h-11.9l-1.7-0.9l-44.1-83.1l1.1,82.2c0,1.3-0.6,1.9-1.8,1.9h-13c-1.3,0-1.9-0.6-1.9-1.9v-113
	c0-1.3,0.6-1.9,1.9-1.9h11.9l1.7,0.9l43.9,83l-0.9-82c0-1.3,0.6-1.9,1.9-1.9h13c1.3,0,1.9,0.6,1.9,1.9v113
	C1060.1,691.2,1059.6,691.7,1058.3,691.7"/>
<path class="st0" d="M1262.7,691.7h-63c-1.3,0-1.9-0.6-1.9-1.9v-113c0-1.3,0.6-1.9,1.9-1.9h63c1.1,0,1.9,0.6,1.9,1.9V588
	c0,1.3-0.6,1.9-1.9,1.9h-46.3c-1.3,0-1.9,0.6-1.9,1.9v31.5c0,1.3,0.6,1.9,1.9,1.9h38c1.3,0,1.9,0.6,1.9,1.9V638
	c0,1.3-0.6,1.9-1.9,1.9h-38c-1.3,0-1.9,0.6-1.9,1.9v33.3c0,1.3,0.6,1.9,1.9,1.9h46.3c1.1,0,1.9,0.6,1.9,1.9v11.1
	C1264.5,691.2,1264,691.7,1262.7,691.7"/>
<path class="st0" d="M1451.3,589.9H1430c-1.3,0-1.9,0.6-1.9,1.9v98.1c0,1.3-0.6,1.9-1.9,1.9h-13c-1.3,0-1.9-0.6-1.9-1.9v-98.1
	c0-1.3-0.6-1.9-1.9-1.9h-21.3c-1.3,0-1.9-0.6-1.9-1.9v-11.1c0-1.3,0.6-1.9,1.9-1.9h63c1.3,0,1.9,0.6,1.9,1.9V588
	C1453.2,589.3,1452.6,589.9,1451.3,589.9"/>
<path class="st0" d="M1640.9,690.1c0,1.1-0.7,1.7-2,1.7H1625c-0.9,0-1.7-0.4-1.9-1.3l-6.9-24.4c-0.2-0.9-0.7-1.1-1.9-1.1h-30
	c-1.1,0-1.7,0.2-1.9,1.1l-6.8,24.4c-0.2,0.9-0.9,1.3-1.9,1.3H1560c-1.3,0-2-0.6-2-1.7c0-0.2,0.2-0.4,0.2-0.7l34.4-112.9
	c0.2-0.9,0.7-1.3,1.9-1.3h10c0.9,0,1.5,0.4,1.9,1.3l34.4,112.9C1640.7,689.7,1640.9,689.9,1640.9,690.1 M1602,612.8
	c-0.6-1.9-1.3-4.6-2.2-8.1h-0.7l-2.2,8.3l-9.1,34.6c0,0.4-0.2,0.6-0.2,0.7c0,1.1,0.7,1.7,2,1.7h19.4c1.3,0,2-0.6,2-1.7
	c0-0.2-0.2-0.6-0.2-0.7L1602,612.8z"/>
<path class="st0" d="M1833.1,591.9c0,0.6-0.4,1.1-1.1,1.5l-11.8,5.9c-0.4,0.2-0.7,0.2-0.9,0.2c-0.7,0-0.9-0.4-1.5-1.1
	c-4.3-5.7-7.4-10.4-15.4-10.4h-8.9c-9.3,0-16.7,7.4-16.7,16.7v57.4c0,9.3,7.4,16.7,16.7,16.7h5.6c9.3,0,16.7-7.4,16.7-16.7v-12
	c0-1.1-0.7-1.9-1.9-1.9h-18.5c-1.3,0-1.9-0.6-1.9-1.9v-11.1c0-1.3,0.6-1.9,1.9-1.9h35.2c1.3,0,1.9,0.6,1.9,1.9v26.8
	c0,18.9-13.1,31.5-33.3,31.5h-5.6c-20.2,0-33.3-12.6-33.3-31.5v-57.4c0-18.9,13.1-31.5,33.3-31.5h8.9
	C1820.5,573.2,1833.1,584.7,1833.1,591.9"/>
<path class="st0" d="M2026.1,691.7h-63c-1.3,0-1.9-0.6-1.9-1.9v-113c0-1.3,0.6-1.9,1.9-1.9h63c1.1,0,1.9,0.6,1.9,1.9V588
	c0,1.3-0.6,1.9-1.9,1.9h-46.3c-1.3,0-1.9,0.6-1.9,1.9v31.5c0,1.3,0.6,1.9,1.9,1.9h38c1.3,0,1.9,0.6,1.9,1.9V638
	c0,1.3-0.6,1.9-1.9,1.9h-38c-1.3,0-1.9,0.6-1.9,1.9v33.3c0,1.3,0.6,1.9,1.9,1.9h46.3c1.1,0,1.9,0.6,1.9,1.9v11.1
	C2027.9,691.2,2027.4,691.7,2026.1,691.7"/>
<path class="st0" d="M2233.3,691.7h-11.8l-1.7-0.9l-44.1-83.1l1.1,82.2c0,1.3-0.6,1.9-1.9,1.9h-13c-1.3,0-1.9-0.6-1.9-1.9v-113
	c0-1.3,0.6-1.9,1.9-1.9h11.8l1.7,0.9l43.9,83l-0.9-82c0-1.3,0.6-1.9,1.9-1.9h13c1.3,0,1.9,0.6,1.9,1.9v113
	C2235.1,691.2,2234.6,691.7,2233.3,691.7"/>
<path class="st0" d="M2427.5,589.9h-21.3c-1.3,0-1.9,0.6-1.9,1.9v98.1c0,1.3-0.6,1.9-1.9,1.9h-13c-1.3,0-1.9-0.6-1.9-1.9v-98.1
	c0-1.3-0.6-1.9-1.9-1.9h-21.3c-1.3,0-1.9-0.6-1.9-1.9v-11.1c0-1.3,0.6-1.9,1.9-1.9h63c1.3,0,1.9,0.6,1.9,1.9V588
	C2429.3,589.3,2428.8,589.9,2427.5,589.9"/>
<path class="st0" d="M2593,693.6h-5.6c-20.2,0-33.3-12.6-33.3-31.5v-85.2c0-1.3,0.6-1.9,1.8-1.9h13c1.1,0,1.9,0.6,1.9,1.9v85.2
	c0,9.3,7.4,16.7,16.7,16.7h5.6c9.3,0,16.7-7.4,16.7-16.7v-85.2c0-1.3,0.6-1.9,1.8-1.9h13c1.1,0,1.9,0.6,1.9,1.9v85.2
	C2626.3,681,2613.2,693.6,2593,693.6"/>
<path class="st0" d="M2834.6,690.2c0,0.9-0.7,1.5-1.8,1.5h-14.3l-1.7-1.3l-17.2-49.4l-1.5-1.1h-18.3c-1.3,0-1.9,0.6-1.9,1.9v48.1
	c0,1.3-0.6,1.9-1.9,1.9h-13c-1.3,0-1.8-0.6-1.8-1.9v-113c0-1.3,0.6-1.9,1.8-1.9h37c20.4,0,33.3,13,33.3,33.3v1.9
	c0,6.5-3.5,14.4-10.6,21.1c-3.3,3.1-6.7,3.7-6.7,5.6c0,0.2,0,0.4,0.2,0.6l18,51.8C2834.6,689.7,2834.6,689.9,2834.6,690.2
	 M2816.9,606.6c0-9.3-7.4-16.7-16.7-16.7h-20.4c-1.3,0-1.9,0.6-1.9,1.9v31.5c0,1.3,0.6,1.9,1.9,1.9h20.4c9.3,0,16.7-7.4,16.7-16.7
	V606.6z"/>
<path class="st1" d="M185.8,53.8c-1.4,3.6-3.6,5-7.2,5c-8.6-0.7-14.3-1.4-17.2-1.4c-36.6,0-64.6,29.4-64.6,64.6v39.5
	c0,5,2.2,7.2,7.2,7.2h50.2c4.3,0,7.2,2.2,7.2,7.2v43c0,5-2.2,7.2-7.2,7.2H104c-5,0-7.2,2.2-7.2,7.2V452c0,5-2.2,7.2-7.2,7.2H39.5
	c-5,0-7.2-2.2-7.2-7.2V233.2c0-5-2.2-7.2-7.2-7.2H7.2c-5,0-7.2-2.2-7.2-7.2v-43c0-5,2.2-7.2,7.2-7.2h17.9c5,0,7.2-2.2,7.2-7.2v-32.3
	c0-33,12.9-65.3,37.3-91.1c23-25.1,54.5-38,91.8-38c26.5,0,39.5,1.4,39.5,9.3c0,0.7,0,1.4-0.7,2.9L185.8,53.8z"/>
<path class="st1" d="M258.3,78.9c-22.2,0-39.5-16.5-39.5-39.5C218.8,17.2,236,0,258.3,0s39.5,17.2,39.5,39.5
	C297.7,61.7,280.5,78.9,258.3,78.9 M283.4,459.2h-50.2c-5,0-7.2-2.2-7.2-7.2V143.5c0-5,2.2-7.2,7.2-7.2h50.2c5,0,7.2,2.2,7.2,7.2
	V452C290.6,457,288.4,459.2,283.4,459.2"/>
<path class="st1" d="M526.6,206.6c-6.5,0-17.2-5-35.2-5c-40.2,0-64.6,24.4-64.6,63.9V452c0,5-2.2,7.2-7.2,7.2h-50.2
	c-5,0-7.2-2.2-7.2-7.2V143.5c0-5,2.2-7.2,7.2-7.2h43c5,0,7.2,2.2,7.2,7.2v23c0,5.7,2.9,8.6,6.5,8.6c7.2,0,28.7-38.7,67.4-38.7
	c27.3,0,37.3,0.7,37.3,9.3v53.8C530.9,203.8,529.5,206.6,526.6,206.6"/>
<path class="st1" d="M998,459.2h-50.2c-5,0-7.2-2.2-7.2-7.2V258.3c0-35.2-28-64.6-57.4-64.6c-28.7,0-57.4,30.9-57.4,64.6V452
	c0,5-2.2,7.2-7.2,7.2h-50.2c-5,0-7.2-2.2-7.2-7.2V258.3c0-35.2-28-64.6-57.4-64.6c-28.7,0-57.4,30.1-57.4,64.6V452
	c0,5-2.2,7.2-7.2,7.2H589c-5,0-7.2-2.2-7.2-7.2V143.5c0-5,2.2-7.2,7.2-7.2h43.1c5,0,7.2,2.2,7.2,7.2v9.3c0,5,2.2,7.9,5,7.9
	c10,0,32.3-24.4,66.7-24.4c22.2,0,40.2,5,56.7,16.5c15.8,10.8,23.7,19.4,26.5,19.4c3.6,0,10.8-9.3,27.3-20.1
	c16.5-10.8,36.6-15.8,61.7-15.8c71,0,122,50.9,122,122V452C1005.2,457,1003,459.2,998,459.2"/>
<path class="st1" d="M1319.4,308.5h-179.4c-5,0-7.2,2.2-7.2,7.2v28.7c0,35.2,28,64.6,64.6,64.6c17.2,0,31.6-6.5,39.5-15.8
	c15.8-18.7,22.2-30.1,26.5-30.1c1.4,0,2.9,0.7,4.3,1.4l45.2,23c2.9,1.4,4.3,2.9,4.3,5c0,5-8.6,23.7-30.1,43.8
	c-21.5,20.1-51.7,30.1-89.7,30.1c-78.2,0-129.1-48.8-129.1-122v-93.3c0-65.3,57.4-122,129.1-122c71.8,0,129.1,56.7,129.1,122v50.2
	C1326.6,306.4,1324.4,308.5,1319.4,308.5 M1262,246.1c0-30.9-30.9-59.6-64.6-59.6c-34.4,0-64.6,29.4-64.6,61
	c0,7.9,0.7,10.8,7.2,10.8h114.8C1261.3,258.3,1262,254.7,1262,246.1"/>
<path class="st1" d="M1638.7,459.2h-50.2c-5,0-7.2-2.2-7.2-7.2V258.3c0-35.2-28-64.6-64.6-64.6c-35.9,0-64.6,29.4-64.6,64.6V452
	c0,5-2.2,7.2-7.2,7.2h-50.2c-5,0-7.2-2.2-7.2-7.2V143.5c0-5,2.2-7.2,7.2-7.2h43c5,0,7.2,2.2,7.2,7.2v8.6c0,5,2.2,7.9,5,7.9
	c9.3,0,29.4-23.7,71.8-23.7c72.5,0,124.1,49.5,124.1,122V452C1645.9,457,1643.7,459.2,1638.7,459.2"/>
<path class="st0" d="M1961.6,459.2h-50.2c-5,0-7.2-2.2-7.2-7.2V258.3c0-35.2-28-64.6-64.6-64.6c-35.9,0-64.6,29.4-64.6,64.6V452
	c0,5-2.2,7.2-7.2,7.2h-50.2c-5,0-7.2-2.2-7.2-7.2V143.5c0-5,2.2-7.2,7.2-7.2h43.1c5,0,7.2,2.2,7.2,7.2v8.6c0,5,2.2,7.9,5,7.9
	c9.3,0,29.4-23.7,71.7-23.7c72.5,0,124.1,49.5,124.1,122V452C1968.7,457,1966.6,459.2,1961.6,459.2"/>
<path class="st0" d="M2280.8,308.5h-179.4c-5,0-7.2,2.2-7.2,7.2v28.7c0,35.2,28,64.6,64.6,64.6c17.2,0,31.6-6.5,39.5-15.8
	c15.8-18.7,22.2-30.1,26.5-30.1c1.4,0,2.9,0.7,4.3,1.4l45.2,23c2.9,1.4,4.3,2.9,4.3,5c0,5-8.6,23.7-30.1,43.8
	c-21.5,20.1-51.7,30.1-89.7,30.1c-78.2,0-129.1-48.8-129.1-122v-93.3c0-65.3,57.4-122,129.1-122s129.1,56.7,129.1,122v50.2
	C2288,306.4,2285.9,308.5,2280.8,308.5 M2223.4,246.1c0-30.9-30.8-59.6-64.6-59.6c-34.4,0-64.6,29.4-64.6,61
	c0,7.9,0.7,10.8,7.2,10.8h114.8C2222.7,258.3,2223.4,254.7,2223.4,246.1"/>
<path class="st0" d="M2413.6,221c0,29.4,25.8,36.6,78.2,47.4c76.8,15.1,114.1,33.7,114.1,89.7c0,64.6-45.9,108.3-118.4,108.3h-21.5
	c-71,0-116.9-43.8-116.9-72.5c0-1.4,1.4-3.6,4.3-5l41.6-20.8c1.4-0.7,2.9-1.4,3.6-1.4c2.2,0,3.6,2.2,5.7,4.3
	c17.2,22.2,30.1,40.2,61.7,40.2h21.5c33,0,54.5-18.7,54.5-41.6c0-30.9-31.6-34.4-91.1-46.6c-68.2-13.6-100.4-34.4-100.4-88.3
	c0-62.4,46.6-105.5,115.5-105.5h21.5c71,0,117,43.8,117,72.5c0,2.2-1.4,3.6-4.3,5l-41.6,20.8c-1.4,0.7-3.6,1.4-4.3,1.4
	c-2.2,0-2.9-2.2-5-4.3c-17.9-23-30.9-40.2-61.7-40.2h-21.5C2432.2,184.4,2413.6,198,2413.6,221"/>
<path class="st0" d="M2816.1,465.6c-58.8,0-115.5-49.5-115.5-121.3V200.9c0-5-2.2-7.2-7.2-7.2h-39.5c-5,0-7.2-2.2-7.2-7.2l1.4-25.1
	l82.5-87.5l5-2.2h22.2c5,0,7.2,2.2,7.2,7.2v50.2c0,5,2.2,7.2,7.2,7.2h50.2c5,0,7.2,2.2,7.2,7.2v43c0,5-2.2,7.2-7.2,7.2h-50.2
	c-5,0-7.2,2.2-7.2,7.2v143.5c0,15.1,5,28,15.8,41.6c6.5,7.9,21.5,12.9,43,22.2c3.6,1.4,5.7,2.9,5.7,7.2v43
	C2829.7,464.9,2826.1,465.6,2816.1,465.6"/>
</svg>
