<?xml version="1.0" encoding="utf-8"?>
<!-- Generator: Adobe Illustrator 23.0.1, SVG Export Plug-In . SVG Version: 6.00 Build 0)  -->
<svg version="1.1" id="favicon" xmlns="http://www.w3.org/2000/svg" xmlns:xlink="http://www.w3.org/1999/xlink" x="0px" y="0px"
	 viewBox="0 0 793.7 793.7" style="enable-background:new 0 0 793.7 793.7;" xml:space="preserve">
<style type="text/css">
	path{fill:#1C497A;}
</style>
<g>
	<path d="M300.1,112.9c-2.3,5.8-5.8,8.1-11.6,8.1c-13.9-1.2-23.2-2.3-27.8-2.3c-59.1,0-104.3,47.5-104.3,104.3v63.7
		c0,8.1,3.5,11.6,11.6,11.6h81.1c7,0,11.6,3.5,11.6,11.6v69.5c0,8.1-3.5,11.6-11.6,11.6H168c-8.1,0-11.6,3.5-11.6,11.6v353.5
		c0,8.1-3.5,11.6-11.6,11.6H63.7c-8.1,0-11.6-3.5-11.6-11.6V402.6c0-8.1-3.5-11.6-11.6-11.6h-29c-8.1,0-11.6-3.5-11.6-11.6v-69.5
		c0-8.1,3.5-11.6,11.6-11.6h29c8.1,0,11.6-3.5,11.6-11.6v-52.1c0-53.3,20.9-105.5,60.3-147.2C149.5,46.9,200.5,26,260.7,26
		c42.9,0,63.7,2.3,63.7,15.1c0,1.2,0,2.3-1.2,4.6L300.1,112.9z"/>
	<path d="M782.1,767.7H701c-8.1,0-11.6-3.5-11.6-11.6V443.2c0-56.8-45.2-104.3-104.3-104.3
		c-57.9,0-104.3,47.5-104.3,104.3v312.9c0,8.1-3.5,11.6-11.6,11.6h-81.1c-8.1,0-11.6-3.5-11.6-11.6V257.8c0-8.1,3.5-11.6,11.6-11.6
		h69.5c8.1,0,11.6,3.5,11.6,11.6v13.9c0,8.1,3.5,12.7,8.1,12.7c15.1,0,47.5-38.2,115.9-38.2c117,0,200.5,80,200.5,197v312.9
		C793.7,764.2,790.2,767.7,782.1,767.7"/>
</g>
</svg>
